<?xml version="1.0" standalone="no"?>
<!DOCTYPE svg PUBLIC "-//W3C//DTD SVG 20010904//EN"
 "http://www.w3.org/TR/2001/REC-SVG-20010904/DTD/svg10.dtd">
<svg version="1.0" xmlns="http://www.w3.org/2000/svg"
 width="515.000000pt" height="515.000000pt" viewBox="0 0 515.000000 515.000000"
 preserveAspectRatio="xMidYMid meet">
<metadata>
Created by potrace 1.14, written by Peter Selinger 2001-2017
</metadata>
<g transform="translate(0.000000,515.000000) scale(0.100000,-0.100000)"
fill="#000000" stroke="none">
<path d="M2358 4265 c-2 -1 -46 -6 -98 -9 -52 -4 -106 -8 -120 -10 -23 -4 -64
-9 -160 -22 -19 -3 -44 -7 -56 -9 -12 -3 -39 -7 -60 -11 -137 -21 -398 -94
-564 -157 -557 -212 -951 -525 -1160 -922 -43 -81 -95 -214 -106 -269 -2 -12
-9 -45 -15 -75 -13 -65 -17 -285 -6 -361 10 -74 42 -201 62 -247 9 -21 38 -83
66 -138 44 -88 74 -135 161 -250 41 -53 211 -220 283 -277 254 -200 586 -367
931 -468 114 -33 278 -72 354 -85 49 -8 72 -12 110 -20 14 -2 48 -7 75 -10 28
-3 61 -7 74 -10 91 -18 573 -25 758 -11 146 10 343 38 448 61 33 8 74 16 90
19 45 8 244 64 290 82 22 9 41 15 43 14 3 -2 123 43 207 77 88 37 287 137 350
177 270 173 435 318 581 515 109 146 212 378 238 536 20 117 15 296 -10 440
-9 51 -54 177 -94 263 -200 427 -678 796 -1301 1002 -156 52 -377 106 -504
125 -23 3 -52 8 -65 10 -14 3 -65 10 -115 15 -49 6 -106 13 -125 16 -37 6
-556 14 -562 9z"/>
</g>
</svg>
